name rise30.2954peak35.7071fall66.7804.mot
datacolumns 19
datarows 35
range 17.83160700000000 17.88826800000000
endheader
time	ground_force1_vx	ground_force1_vy	ground_force1_vz	ground_force1_px	ground_force1_py	ground_force1_pz	ground_force2_vx	ground_force2_vy	ground_force2_vz	ground_force2_px	ground_force2_py	ground_force2_pz	ground_torque1_x	ground_torque1_y	ground_torque1_z	ground_torque2_x	ground_torque2_y	ground_torque2_z	
17.83160700000000	-36.66654400000000	776.98562400000003	49.00628500000000	0.04845900000000	0.00000000000000	0.11670500000000	-4.58232900000000	26.53792300000000	5.58267200000000	0.26737400000000	0.00000000000000	-0.06170800000000	0.00000000000000	13.86211100000000	0.00000000000000	0.00000000000000	2.75923100000000	0.00000000000000	
17.83326700000000	-37.17528500000000	775.65539999999999	48.85553100000000	0.04770800000000	0.00000000000000	0.11661200000000	-5.34163500000000	32.65345100000000	6.68193900000000	0.27234000000000	0.00000000000000	-0.06231800000000	0.00000000000000	13.84954000000000	0.00000000000000	0.00000000000000	3.34894200000000	0.00000000000000	
17.83494000000000	-37.70607500000000	774.26960599999995	48.69387800000000	0.04695800000000	0.00000000000000	0.11651500000000	-6.04590400000000	39.01955500000000	7.77030400000000	0.27674400000000	0.00000000000000	-0.06288000000000	0.00000000000000	13.84146800000000	0.00000000000000	0.00000000000000	3.94469700000000	0.00000000000000	
17.83660300000000	-38.25924800000000	772.82578500000000	48.52114500000000	0.04621200000000	0.00000000000000	0.11641600000000	-6.66817400000000	45.51713300000000	8.81789600000000	0.28067400000000	0.00000000000000	-0.06340100000000	0.00000000000000	13.83801300000000	0.00000000000000	0.00000000000000	4.53074100000000	0.00000000000000	
17.83826900000000	-38.83507700000000	771.32133799999997	48.33715500000000	0.04546800000000	0.00000000000000	0.11631400000000	-7.18616900000000	52.03869700000000	9.79886400000000	0.28420200000000	0.00000000000000	-0.06388700000000	0.00000000000000	13.83928000000000	0.00000000000000	0.00000000000000	5.09306500000000	0.00000000000000	
17.83993500000000	-39.43376900000000	769.75353099999995	48.14173400000000	0.04472600000000	0.00000000000000	0.11620900000000	-7.58347300000000	58.49530600000000	10.69283500000000	0.28738700000000	0.00000000000000	-0.06434300000000	0.00000000000000	13.84535800000000	0.00000000000000	0.00000000000000	5.62025600000000	0.00000000000000	
17.84160500000000	-40.05546400000000	768.11949700000002	47.93471300000000	0.04398700000000	0.00000000000000	0.11610000000000	-7.85006800000000	64.82098800000000	11.48572200000000	0.29027500000000	0.00000000000000	-0.06477400000000	0.00000000000000	13.85632800000000	0.00000000000000	0.00000000000000	6.10400100000000	0.00000000000000	
17.84326900000000	-40.70022600000000	766.41624000000002	47.71592600000000	0.04325000000000	0.00000000000000	0.11598900000000	-7.98226300000000	70.97457300000001	12.16989400000000	0.29290500000000	0.00000000000000	-0.06518200000000	0.00000000000000	13.87225100000000	0.00000000000000	0.00000000000000	6.53927300000000	0.00000000000000	
17.84493800000000	-41.36805100000000	764.64064499999995	47.48521400000000	0.04251600000000	0.00000000000000	0.11587600000000	-7.98213300000000	76.93919699999999	12.74379800000000	0.29531000000000	0.00000000000000	-0.06557100000000	0.00000000000000	13.89317600000000	0.00000000000000	0.00000000000000	6.92421000000000	0.00000000000000	
17.84660200000000	-42.05885100000000	762.78948100000002	47.24242000000000	0.04178400000000	0.00000000000000	0.11575900000000	-7.85656800000000	82.71987400000000	13.21113200000000	0.29751600000000	0.00000000000000	-0.06594300000000	0.00000000000000	13.91913500000000	0.00000000000000	0.00000000000000	7.25975000000000	0.00000000000000	
17.84826800000000	-42.77246100000000	760.85940800000003	46.98739700000000	0.04105500000000	0.00000000000000	0.11563900000000	-7.61609600000000	88.33969500000001	13.57974100000000	0.29954700000000	0.00000000000000	-0.06630000000000	0.00000000000000	13.95014300000000	0.00000000000000	0.00000000000000	7.54910000000000	0.00000000000000	
17.84993900000000	-43.50863300000000	758.84699000000001	46.72000200000000	0.04032800000000	0.00000000000000	0.11551700000000	-7.27361500000000	93.83519400000000	13.86036200000000	0.30142000000000	0.00000000000000	-0.06664300000000	0.00000000000000	13.98619800000000	0.00000000000000	0.00000000000000	7.79711100000000	0.00000000000000	
17.85159900000000	-44.26703300000000	756.74869699999999	46.44009800000000	0.03960300000000	0.00000000000000	0.11539200000000	-6.84314200000000	99.25141700000000	14.06534600000000	0.30315300000000	0.00000000000000	-0.06697400000000	0.00000000000000	14.02728000000000	0.00000000000000	0.00000000000000	8.00962400000000	0.00000000000000	
17.85326500000000	-45.04723900000000	754.56091600000002	46.14755900000000	0.03888000000000	0.00000000000000	0.11526400000000	-6.33869500000000	104.63714000000000	14.20747500000000	0.30476000000000	0.00000000000000	-0.06729400000000	0.00000000000000	14.07335100000000	0.00000000000000	0.00000000000000	8.19284600000000	0.00000000000000	
17.85493900000000	-45.84873800000000	752.27996599999994	45.84226600000000	0.03816000000000	0.00000000000000	0.11513400000000	-5.77336300000000	110.04060400000000	14.29894300000000	0.30625100000000	0.00000000000000	-0.06760500000000	0.00000000000000	14.12435300000000	0.00000000000000	0.00000000000000	8.35281000000000	0.00000000000000	
17.85659800000000	-46.67092700000000	749.90210000000002	45.52411000000000	0.03744100000000	0.00000000000000	0.11500100000000	-5.15860200000000	115.50599900000000	14.35056200000000	0.30763800000000	0.00000000000000	-0.06790600000000	0.00000000000000	14.18020800000000	0.00000000000000	0.00000000000000	8.49493500000000	0.00000000000000	
17.85827200000000	-47.51310800000000	747.42352400000004	45.19299100000000	0.03672400000000	0.00000000000000	0.11486500000000	-4.50379100000000	121.07084800000000	14.37120400000000	0.30892900000000	0.00000000000000	-0.06820000000000	0.00000000000000	14.24081900000000	0.00000000000000	0.00000000000000	8.62371300000000	0.00000000000000	
17.85993600000000	-48.37448900000000	744.84040000000005	44.84882300000000	0.03600900000000	0.00000000000000	0.11472700000000	-3.81600500000000	126.76432600000000	14.36749200000000	0.31013200000000	0.00000000000000	-0.06848700000000	0.00000000000000	14.30606800000000	0.00000000000000	0.00000000000000	8.74252200000000	0.00000000000000	
17.86159800000000	-49.25418100000000	742.14886400000000	44.49152900000000	0.03529600000000	0.00000000000000	0.11458600000000	-3.10002100000000	132.60647399999999	14.34370800000000	0.31125200000000	0.00000000000000	-0.06876800000000	0.00000000000000	14.37581700000000	0.00000000000000	0.00000000000000	8.85355200000000	0.00000000000000	
17.86326500000000	-50.15119600000000	739.34503800000005	44.12104800000000	0.03458300000000	0.00000000000000	0.11444300000000	-2.35847700000000	138.60821700000000	14.30190000000000	0.31229600000000	0.00000000000000	-0.06904200000000	0.00000000000000	14.44990500000000	0.00000000000000	0.00000000000000	8.95784200000000	0.00000000000000	
17.86493400000000	-51.06445100000000	736.42503599999998	43.73733200000000	0.03387200000000	0.00000000000000	0.11429800000000	-1.59217500000000	144.77201199999999	14.24212800000000	0.31326900000000	0.00000000000000	-0.06931200000000	0.00000000000000	14.52815200000000	0.00000000000000	0.00000000000000	9.05538500000000	0.00000000000000	
17.86660100000000	-51.99276200000000	733.38498400000003	43.34034600000000	0.03316200000000	0.00000000000000	0.11415100000000	-0.80046000000000	151.09299500000000	14.16281700000000	0.31417400000000	0.00000000000000	-0.06957600000000	0.00000000000000	14.61035400000000	0.00000000000000	0.00000000000000	9.14530700000000	0.00000000000000	
17.86826800000000	-52.93484700000000	730.22102700000005	42.93007400000000	0.03245200000000	0.00000000000000	0.11400100000000	0.01836000000000	157.56041800000000	14.06116600000000	0.31501500000000	0.00000000000000	-0.06983600000000	0.00000000000000	14.69628800000000	0.00000000000000	0.00000000000000	9.22606700000000	0.00000000000000	
17.86993600000000	-53.88932700000000	726.92934600000001	42.50651500000000	0.03174300000000	0.00000000000000	0.11385000000000	0.86659200000000	164.15924100000001	13.93357400000000	0.31579400000000	0.00000000000000	-0.07009200000000	0.00000000000000	14.78571000000000	0.00000000000000	0.00000000000000	9.29567700000000	0.00000000000000	
17.87160100000000	-54.85472300000000	723.50617000000000	42.06968500000000	0.03103400000000	0.00000000000000	0.11369600000000	1.74676700000000	170.87171400000000	13.77605100000000	0.31651600000000	0.00000000000000	-0.07034400000000	0.00000000000000	14.87835200000000	0.00000000000000	0.00000000000000	9.35191300000000	0.00000000000000	
17.87326800000000	-55.82946100000000	719.94778799999995	41.61962000000000	0.03032400000000	0.00000000000000	0.11354100000000	2.66130400000000	177.67884500000000	13.58457500000000	0.31718100000000	0.00000000000000	-0.07059300000000	0.00000000000000	14.97392700000000	0.00000000000000	0.00000000000000	9.39251100000000	0.00000000000000	
17.87493700000000	-56.81187300000000	716.25056300000006	41.15637400000000	0.02961400000000	0.00000000000000	0.11338300000000	3.61224000000000	184.56167099999999	13.35540300000000	0.31779300000000	0.00000000000000	-0.07083900000000	0.00000000000000	15.07212800000000	0.00000000000000	0.00000000000000	9.41532300000000	0.00000000000000	
17.87659800000000	-57.80019500000000	712.41094799999996	40.68002200000000	0.02890200000000	0.00000000000000	0.11322400000000	4.60103700000000	191.50226699999999	13.08529100000000	0.31835100000000	0.00000000000000	-0.07108200000000	0.00000000000000	15.17262600000000	0.00000000000000	0.00000000000000	9.41844500000000	0.00000000000000	
17.87826600000000	-58.79257300000000	708.42549899999995	40.19065900000000	0.02819000000000	0.00000000000000	0.11306400000000	5.62846700000000	198.48447700000000	12.77165100000000	0.31885800000000	0.00000000000000	-0.07132200000000	0.00000000000000	15.27507400000000	0.00000000000000	0.00000000000000	9.40030600000000	0.00000000000000	
17.87993300000000	-59.78706700000000	704.29088700000000	39.68840100000000	0.02747500000000	0.00000000000000	0.11290200000000	6.69455600000000	205.49437800000001	12.41263800000000	0.31931500000000	0.00000000000000	-0.07156000000000	0.00000000000000	15.37910600000000	0.00000000000000	0.00000000000000	9.35970900000000	0.00000000000000	
17.88160600000000	-60.78164900000000	700.00391900000000	39.17338800000000	0.02675800000000	0.00000000000000	0.11273800000000	7.79860300000000	212.52047300000001	12.00716000000000	0.31972200000000	0.00000000000000	-0.07179500000000	0.00000000000000	15.48433700000000	0.00000000000000	0.00000000000000	9.29585500000000	0.00000000000000	
17.88327000000000	-61.77421000000000	695.56154600000002	38.64578100000000	0.02603900000000	0.00000000000000	0.11257400000000	8.93923100000000	219.55368300000001	11.55485000000000	0.32008100000000	0.00000000000000	-0.07202800000000	0.00000000000000	15.59036400000000	0.00000000000000	0.00000000000000	9.20832500000000	0.00000000000000	
17.88493500000000	-62.76256700000000	690.96088299999997	38.10576400000000	0.02531600000000	0.00000000000000	0.11240800000000	10.11448600000000	226.58715599999999	11.05599300000000	0.32039100000000	0.00000000000000	-0.07226000000000	0.00000000000000	15.69676900000000	0.00000000000000	0.00000000000000	9.09704600000000	0.00000000000000	
17.88660000000000	-63.74445900000000	686.19922399999996	37.55354600000000	0.02458900000000	0.00000000000000	0.11224100000000	11.32194300000000	233.61595900000000	10.51142500000000	0.32065500000000	0.00000000000000	-0.07248900000000	0.00000000000000	15.80311700000000	0.00000000000000	0.00000000000000	8.96224400000000	0.00000000000000	
17.88826800000000	-64.71756100000000	681.27405999999996	36.98935900000000	0.02385800000000	0.00000000000000	0.11207300000000	12.55883400000000	240.63669999999999	9.92242100000000	0.32087100000000	0.00000000000000	-0.07271700000000	0.00000000000000	15.90895900000000	0.00000000000000	0.00000000000000	8.80438800000000	0.00000000000000	
